HIERARCHY
ROOT WRIST
{
	OFFSET 0.000000 0.000000 0.000000
	CHANNELS 6 Xposition Yposition Zposition Yrotation Xrotation Zrotation
	JOINT THUMB_CMC_FE
	{
		OFFSET 0.225143 0.117753 -0.062308
		CHANNELS 3 Yrotation Xrotation Zrotation
		JOINT THUMB_CMC_AA
		{
			OFFSET 0.212856 -0.150507 0.098851
			CHANNELS 3 Yrotation Xrotation Zrotation
			JOINT THUMB_MCP_FE
			{
				OFFSET -0.322503 -0.167445 -0.031436
				CHANNELS 3 Yrotation Xrotation Zrotation
				JOINT THUMB_IP_FE
				{
					OFFSET 0.295233 -0.236404 0.025845
					CHANNELS 3 Yrotation Xrotation Zrotation
					End Site
					{
						OFFSET 0.000000 0.000000 0.000000
					}
				}
			}
		}
	}
	JOINT INDEX_MCP
	{
		OFFSET 1.076913 0.264198 -0.014768
		CHANNELS 3 Yrotation Xrotation Zrotation
		JOINT INDEX_PIP_FE
		{
			OFFSET 0.425053 0.013289 0.013619
			CHANNELS 3 Yrotation Xrotation Zrotation
			JOINT INDEX_DIP_FE
			{
				OFFSET 0.271505 -0.024898 0.000550
				CHANNELS 3 Yrotation Xrotation Zrotation
				End Site
				{
					OFFSET 0.000000 0.000000 0.000000
				}
			}
		}
	}
	JOINT MIDDLE_MCP
	{
		OFFSET 1.072991 0.019362 0.038780
		CHANNELS 3 Yrotation Xrotation Zrotation
		JOINT MIDDLE_PIP_FE
		{
			OFFSET 0.480704 0.002618 0.028696
			CHANNELS 3 Yrotation Xrotation Zrotation
			JOINT MIDDLE_DIP_FE
			{
				OFFSET 0.307486 -0.031129 -0.000643
				CHANNELS 3 Yrotation Xrotation Zrotation
				End Site
				{
					OFFSET 0.000000 0.000000 0.000000
				}
			}
		}
	}
	JOINT RING_MCP
	{
		OFFSET 0.994992 -0.195930 -0.005938
		CHANNELS 3 Yrotation Xrotation Zrotation
		JOINT RING_PIP_FE
		{
			OFFSET 0.436995 0.003792 0.019994
			CHANNELS 3 Yrotation Xrotation Zrotation
			JOINT RING_DIP_FE
			{
				OFFSET 0.295558 -0.038341 -0.006642
				CHANNELS 3 Yrotation Xrotation Zrotation
				End Site
				{
					OFFSET 0.000000 0.000000 0.000000
				}
			}
		}
	}
	JOINT PINKY_MCP
	{
		OFFSET 0.873858 -0.393246 -0.086282
		CHANNELS 3 Yrotation Xrotation Zrotation
		JOINT PINKY_PIP_FE
		{
			OFFSET 0.343972 -0.016492 0.013445
			CHANNELS 3 Yrotation Xrotation Zrotation
			JOINT PINKY_DIP_FE
			{
				OFFSET 0.224713 -0.036309 -0.010265
				CHANNELS 3 Yrotation Xrotation Zrotation
				End Site
				{
					OFFSET 0.000000 0.000000 0.000000
				}
			}
		}
	}
}
MOTION
Frames: 17
Frame Time: 0.008333334
4.218878 3.659512 6.706167 117.607000 -66.548280 -31.892700 61.461180 4.834482 63.004780 119.352900 -30.976960 18.881200 -112.863900 -65.843260 -54.019440 4.562068 -8.459839 8.156684 -132.747000 2.180952 173.345800 -41.978450 -86.125550 49.980350 -2.052612 1.704993 -35.673520 -173.827600 -1.369995 -174.627700 -39.240970 -88.411320 39.923260 -6.002502 4.395441 5.077586 161.553300 -0.769104 -166.407000 -31.479550 -85.617830 -6.826477 0.199308 0.562930 4.968527 152.052200 -2.860291 -158.459700 -48.977450 -83.530610 16.085040 5.539806 0.809180 -9.345245 
4.217474 3.660554 6.704089 117.708900 -66.609680 -32.011290 61.461180 4.834473 63.230260 119.352900 -30.976930 18.845350 -112.863900 -65.843260 -54.538480 4.562088 -8.459839 8.133709 -132.745500 2.180893 173.346100 -41.978330 -86.125550 49.979930 -2.052612 1.705000 -35.673550 -174.089400 -1.344666 -174.690500 -39.241240 -88.411440 39.100110 -6.002502 4.395448 5.204798 161.553300 -0.769104 -166.566700 -31.479640 -85.617800 -6.924744 0.199296 0.562919 4.968528 152.096500 -2.878326 -158.569200 -48.977600 -83.530610 15.981680 5.539821 0.809167 -9.266205 
4.216459 3.662315 6.701490 117.926400 -66.627140 -32.221500 61.461180 4.834468 63.210270 119.352900 -30.976900 18.798200 -112.864000 -65.843260 -54.459470 4.562079 -8.459839 7.624335 -132.744400 2.180838 173.346400 -41.978490 -86.125700 49.979730 -2.052643 1.705006 -35.673520 -174.184100 -1.335510 -174.716900 -39.241030 -88.411320 38.978020 -6.002502 4.395444 5.204801 161.553300 -0.769104 -166.615400 -31.479580 -85.617830 -6.959137 0.199323 0.562917 4.968518 152.069400 -2.867310 -158.564600 -48.977660 -83.530640 15.803350 5.539809 0.809169 -8.981842 
4.215164 3.664946 6.698179 118.124600 -66.617070 -32.475890 61.461170 4.834485 63.041730 119.352900 -30.976930 18.824990 -112.864000 -65.843230 -53.897220 4.562074 -8.459869 6.898805 -132.744300 2.180822 173.347200 -41.978330 -86.125550 49.979690 -2.052612 1.705012 -35.673520 -174.352700 -1.319183 -174.775400 -39.241030 -88.411560 38.476830 -6.002502 4.395440 5.204801 161.553300 -0.769104 -166.706700 -31.479580 -85.617740 -7.076294 0.199303 0.562924 4.968519 152.304900 -2.963104 -158.643800 -48.977540 -83.530640 16.097940 5.539807 0.809179 -9.149933 
4.213600 3.666649 6.695277 118.188800 -66.652710 -32.606840 61.461190 4.834468 63.145250 119.352900 -30.976930 18.927400 -112.864000 -65.843260 -54.059360 4.562093 -8.459839 6.866801 -132.745300 2.180877 173.347700 -41.978270 -86.125610 49.979940 -2.052612 1.704982 -35.673550 -174.348100 -1.319641 -174.783300 -39.241030 -88.411190 38.308920 -6.002502 4.395448 5.204803 161.553300 -0.769104 -166.700800 -31.479550 -85.617830 -7.433167 0.199287 0.562937 4.968529 152.683600 -3.117065 -158.788100 -48.977510 -83.530610 16.517000 5.539814 0.809155 -8.823822 
4.213326 3.666012 6.693077 118.006700 -66.756840 -32.393190 61.461180 4.834468 63.182230 119.352900 -30.976930 18.677800 -112.863900 -65.843260 -54.084590 4.562077 -8.459839 6.866801 -132.740200 2.180645 173.348500 -41.978490 -86.125670 49.979170 -2.052612 1.704995 -35.673520 -174.158000 -1.338043 -174.626400 -39.241180 -88.411320 38.201420 -6.002533 4.395455 5.204800 161.553300 -0.769104 -166.509600 -31.479490 -85.617740 -7.887878 0.199310 0.562929 4.968516 152.726700 -3.134521 -158.522500 -48.977570 -83.530610 15.829390 5.539804 0.809190 -7.962646 
4.211583 3.668432 6.689806 118.006400 -66.724400 -32.485530 61.461180 4.834482 63.160880 119.352900 -30.976930 18.723810 -112.863900 -65.843230 -54.095090 4.562080 -8.459839 6.866789 -132.739400 2.180604 173.349100 -41.978390 -86.125550 49.979100 -2.052643 1.705006 -35.673520 -174.045800 -1.348877 -174.624200 -39.240880 -88.411560 38.264260 -6.002533 4.395448 5.204806 161.553300 -0.769104 -166.504200 -31.479580 -85.617800 -8.048065 0.199309 0.562936 4.968519 152.826500 -3.175110 -158.453000 -48.977360 -83.530610 15.775480 5.539802 0.809169 -7.664734 
4.210292 3.669298 6.686745 117.949500 -66.772280 -32.468690 61.461190 4.834470 63.135780 119.352900 -30.976930 18.786300 -112.863900 -65.843230 -54.092990 4.562080 -8.459869 6.866782 -132.743300 2.180782 173.348600 -41.978330 -86.125610 49.979750 -2.052612 1.704988 -35.673550 -174.219700 -1.332062 -174.566200 -39.240840 -88.411320 37.455100 -6.002533 4.395450 5.204801 161.553300 -0.769104 -166.383900 -31.479490 -85.617800 -8.441254 0.199303 0.562919 4.968527 152.698700 -3.123169 -158.369000 -48.977420 -83.530550 15.230580 5.539818 0.809160 -7.672485 
4.208793 3.672090 6.682683 118.017300 -66.660250 -32.615720 61.461190 4.834468 63.137850 119.352900 -30.976960 18.780160 -112.863900 -65.843230 -54.097140 4.562068 -8.459839 6.866791 -132.741400 2.180699 173.349000 -41.978270 -86.125550 49.978810 -2.052612 1.704994 -35.673520 -174.006900 -1.352661 -174.500200 -39.241090 -88.411440 38.013810 -6.002533 4.395462 5.204807 161.553300 -0.769104 -166.408100 -31.479550 -85.617800 -8.557922 0.199305 0.562932 4.968527 152.878400 -3.196136 -158.423900 -48.977660 -83.530580 15.676970 5.539804 0.809185 -7.831268 
4.206723 3.674119 6.678762 118.018300 -66.570860 -32.695770 61.461190 4.834475 63.127720 119.352900 -30.976900 18.792860 -112.864000 -65.843260 -54.111820 4.562085 -8.459839 6.866787 -132.741500 2.180699 173.348800 -41.978270 -86.125550 49.978790 -2.052612 1.704981 -35.673550 -174.151700 -1.338623 -174.539400 -39.240720 -88.411320 37.769300 -6.002502 4.395443 5.204805 161.553300 -0.769104 -166.458200 -31.479490 -85.617800 -8.506927 0.199311 0.562911 4.968517 152.642500 -3.100372 -158.448600 -48.977570 -83.530580 15.375730 5.539822 0.809185 -8.101563 
4.204394 3.681757 6.674141 120.474700 -66.777400 -35.297730 61.461190 4.834473 63.761370 119.352900 -30.976930 18.193220 -112.864000 -65.843260 -54.497250 4.562109 -8.459839 6.622086 -135.474400 2.306260 172.328600 -41.978330 -86.125520 47.447240 -2.052612 1.704993 -35.919370 -176.210800 -1.138550 -174.994500 -39.240810 -88.411440 35.292370 -6.002502 4.395456 5.204804 161.553300 -0.769104 -167.104000 -31.479580 -85.617830 -6.718262 0.199314 0.562937 4.968516 152.887800 -3.199982 -159.102900 -48.977660 -83.530640 16.730880 5.539806 0.809183 -9.701172 
4.202587 3.684432 6.670615 120.678000 -66.812010 -35.501890 61.461180 4.834475 63.733480 119.352900 -30.976960 18.307410 -112.863900 -65.843260 -54.476170 4.562097 -8.459839 5.448126 -135.531500 2.308826 172.455400 -41.978360 -86.125670 47.094890 -2.052612 1.705001 -35.401820 -176.406400 -1.119476 -174.902900 -39.240910 -88.411560 34.591280 -6.002533 4.395457 5.204806 161.553300 -0.769104 -167.002300 -31.479680 -85.617800 -7.365723 0.199312 0.562923 4.968516 153.023600 -3.255096 -159.111100 -48.977660 -83.530580 17.026170 5.539819 0.809169 -10.543030 
4.200944 3.685477 6.666510 120.038400 -66.714140 -34.860320 61.461180 4.834475 63.738620 119.352900 -30.976960 18.712600 -112.864000 -65.843230 -54.765440 4.562085 -8.459839 4.907146 -135.373000 2.301691 172.921200 -41.978450 -86.125550 46.058200 -2.052643 1.704999 -34.542570 -175.568800 -1.201111 -174.705300 -39.241090 -88.411440 35.498670 -6.002502 4.395448 5.204805 161.553300 -0.769104 -166.806000 -31.479460 -85.617830 -8.307373 0.199321 0.562920 4.968519 153.181400 -3.319092 -158.935800 -48.977420 -83.530640 16.684900 5.539795 0.809162 -10.013060 
4.199306 3.690403 6.662522 120.756000 -66.722560 -35.588810 61.461180 4.834480 64.007420 119.352900 -30.976930 18.538250 -112.863900 -65.843260 -55.255400 4.562103 -8.459839 4.941166 -135.368500 2.301491 172.802300 -41.978240 -86.125610 46.849170 -2.052643 1.705008 -34.252930 -176.013100 -1.157837 -174.733000 -39.241030 -88.411440 34.935430 -6.002502 4.395453 5.204805 161.553300 -0.769104 -166.939100 -31.479430 -85.617860 -8.168549 0.199315 0.562920 4.968529 153.237600 -3.341919 -158.987200 -48.977600 -83.530580 16.572970 5.539812 0.809175 -9.582367 
4.198309 3.696702 6.658424 121.476900 -66.731050 -36.285490 61.461190 4.834475 64.051250 119.352900 -30.976930 18.525080 -112.864000 -65.843260 -55.090270 4.562101 -8.459839 4.245863 -135.728300 2.317648 172.787300 -41.978390 -86.125670 46.749550 -2.052612 1.704995 -35.311190 -176.540100 -1.106415 -174.692500 -39.240720 -88.411560 33.810470 -6.002502 4.395434 5.204803 161.553300 -0.769104 -167.069100 -31.479460 -85.617860 -8.000336 0.199305 0.562927 4.968516 153.576400 -3.479218 -159.189800 -48.977480 -83.530610 17.038790 5.539822 0.809175 -9.359680 
4.196521 3.699833 6.655257 121.503800 -66.689910 -36.276550 61.461190 4.834475 64.038760 119.352900 -30.976930 18.603880 -112.863900 -65.843260 -55.157960 4.562103 -8.459839 3.972553 -135.503500 2.307555 172.974500 -41.978450 -86.125550 46.806030 -2.052643 1.705000 -34.698150 -176.536500 -1.106781 -174.609400 -39.241030 -88.411440 33.644770 -6.002533 4.395445 5.204804 161.553300 -0.769104 -166.943400 -31.479430 -85.617830 -8.240509 0.199313 0.562930 4.968515 153.455700 -3.430328 -159.136200 -48.977450 -83.530610 16.722690 5.539793 0.809184 -9.288452 
4.195145 3.703660 6.652979 121.819400 -66.706670 -36.520600 61.461190 4.834461 64.183320 119.352900 -30.976930 18.553620 -112.864000 -65.843230 -55.506040 4.562086 -8.459839 3.844726 -135.936100 2.326956 173.158400 -41.978300 -86.125550 45.985440 -2.052643 1.705022 -35.225340 -177.213500 -1.040558 -174.572400 -39.240690 -88.411560 32.089350 -6.002502 4.395440 5.204803 161.553300 -0.769104 -166.929600 -31.479460 -85.617800 -8.150482 0.199307 0.562920 4.968518 153.422900 -3.416992 -159.138500 -48.977570 -83.530610 16.750420 5.539807 0.809177 -8.998108 
